<?xml version="1.0" encoding="UTF-8" standalone="no"?>
<svg
   id="Layer_1"
   data-name="Layer 1"
   viewBox="0 0 137.08 34.6"
   version="1.1"
   sodipodi:docname="OARC_Logo_without_gradient_for_white_background.svg"
   inkscape:export-filename="C:\Users\MikelSalazar\Projects\GeoPose\Presentation\Website\resources\logos\OARC.png"
   inkscape:export-xdpi="348.1395"
   inkscape:export-ydpi="348.1395"
   inkscape:version="1.1.1 (3bf5ae0d25, 2021-09-20)"
   xmlns:inkscape="http://www.inkscape.org/namespaces/inkscape"
   xmlns:sodipodi="http://sodipodi.sourceforge.net/DTD/sodipodi-0.dtd"
   xmlns="http://www.w3.org/2000/svg"
   xmlns:svg="http://www.w3.org/2000/svg"
   xmlns:rdf="http://www.w3.org/1999/02/22-rdf-syntax-ns#"
   xmlns:cc="http://creativecommons.org/ns#"
   xmlns:dc="http://purl.org/dc/elements/1.1/">
  <sodipodi:namedview
     id="namedview626"
     pagecolor="#ffffff"
     bordercolor="#666666"
     borderopacity="1.0"
     inkscape:pageshadow="2"
     inkscape:pageopacity="0.0"
     inkscape:pagecheckerboard="0"
     showgrid="false"
     inkscape:zoom="6.6233228"
     inkscape:cx="66.658384"
     inkscape:cy="16.381506"
     inkscape:window-width="1920"
     inkscape:window-height="1057"
     inkscape:window-x="3832"
     inkscape:window-y="1063"
     inkscape:window-maximized="1"
     inkscape:current-layer="Layer_1" />
  <defs
     id="defs4">
    <style
       id="style2">.cls-1{fill:#a2a2a2;}.cls-2{fill:#b1b1b1;}.cls-3{fill:#d0d0d0;}.cls-4{fill:#939393;}.cls-5{fill:#c1c1c1;}.cls-6{fill:#dfdfdf;}.cls-7{fill:#efefef;}.cls-8{fill:#bcbcbc;}.cls-9{fill:#fff;}.cls-10{fill:#777677;}</style>
  </defs>
  <title
     id="title6">OARC_Logo_without_gradient_for_white_background</title>
  <g
     id="g1754"
     transform="matrix(0.9175522,0,0,0.9175522,5.6510923,1.426347)">
    <polygon
       class="cls-1"
       points="21.88,3.55 30.1,0 37.08,2.43 "
       id="polygon8" />
    <polygon
       class="cls-2"
       points="21.88,3.55 27.88,14.54 37.08,2.43 "
       id="polygon10" />
    <polygon
       class="cls-3"
       points="37.08,2.43 27.88,14.54 43.39,13.35 "
       id="polygon12" />
    <polygon
       class="cls-4"
       points="21.88,3.55 17.74,15.27 27.88,14.54 "
       id="polygon14" />
    <polygon
       class="cls-1"
       points="17.74,15.27 9.95,13.13 20.76,6.72 "
       id="polygon16" />
    <polygon
       class="cls-2"
       points="20.76,6.72 13.57,8.01 9.95,13.13 "
       id="polygon18" />
    <polygon
       class="cls-5"
       points="37.08,2.43 41.76,6.43 43.39,13.35 "
       id="polygon20" />
    <polygon
       class="cls-6"
       points="27.88,14.54 34.3,23.75 43.39,13.35 "
       id="polygon22" />
    <polygon
       class="cls-7"
       points="43.39,13.35 47.24,17.39 34.3,23.75 "
       id="polygon24" />
    <polygon
       class="cls-5"
       points="34.3,23.75 47.22,28.7 47.24,17.39 "
       id="polygon26" />
    <polygon
       class="cls-6"
       points="47.24,17.39 49.64,22.34 47.22,28.7 "
       id="polygon28" />
    <polygon
       class="cls-1"
       points="34.3,23.75 39.12,31.68 47.22,28.7 "
       id="polygon30" />
    <polygon
       class="cls-2"
       points="39.12,31.68 44.27,31.36 47.22,28.7 "
       id="polygon32" />
    <polygon
       class="cls-4"
       points="39.15,31.68 28.1,31.91 34.33,23.75 "
       id="polygon34" />
    <polygon
       class="cls-1"
       points="28.07,31.91 22.09,23.75 34.3,23.75 "
       id="polygon36" />
    <polygon
       class="cls-2"
       points="28.1,31.91 16.87,31.91 22.12,23.75 "
       id="polygon38" />
    <polygon
       class="cls-2"
       points="34.3,23.75 22.09,23.75 27.88,14.54 "
       id="polygon40" />
    <polygon
       class="cls-1"
       points="17.74,15.27 22.09,23.75 27.88,14.54 "
       id="polygon42" />
    <polygon
       class="cls-2"
       points="22.09,23.75 12.53,23.88 17.74,15.27 "
       id="polygon44" />
    <polygon
       class="cls-5"
       points="22.09,23.75 12.53,23.88 16.84,31.91 "
       id="polygon46" />
    <polygon
       class="cls-5"
       points="9.95,13.13 12.53,23.88 17.74,15.27 "
       id="polygon48" />
    <polygon
       class="cls-3"
       points="16.87,31.91 6.91,31.65 12.56,23.88 "
       id="polygon50" />
    <polygon
       class="cls-7"
       points="6.88,31.65 0,21.56 12.53,23.88 "
       id="polygon52" />
    <polygon
       class="cls-6"
       points="6.88,31.65 0,21.56 0.69,27.48 "
       id="polygon54" />
    <polygon
       class="cls-2"
       points="9.95,13.13 5.16,13.83 12.53,23.88 "
       id="polygon56" />
    <polygon
       class="cls-3"
       points="12.53,23.88 0,21.56 5.16,13.83 "
       id="polygon58" />
    <polygon
       class="cls-5"
       points="0,21.56 5.16,13.83 1.27,16.85 "
       id="polygon60" />
    <path
       class="cls-8"
       d="m 62.08,72.84 c -0.14,-0.4 -0.2,-0.85 -0.3,-1.26 -0.22,-1 -0.55,-2 -0.68,-2.94 0,0 0,0 0,-0.08 l -0.27,-0.23 -1.17,-1 -1.19,-1 a 2.41,2.41 0 0 0 -0.24,-0.21 h -0.09 c -0.95,-0.26 -1.89,-0.67 -2.82,-1 l -1.25,-0.44 h -0.14 -0.07 c -0.87,0.42 -1.78,0.77 -2.66,1.16 l -1.49,0.65 a 3.5,3.5 0 0 1 -0.81,0.36 c -0.06,0.23 -0.17,0.46 -0.24,0.68 -0.14,0.39 -0.28,0.78 -0.41,1.17 a 0.29,0.29 0 0 1 -0.17,0.17 l -2.39,0.43 -1.55,0.28 a 3.89,3.89 0 0 1 -0.47,0.09 v 0 a 4.71,4.71 0 0 1 -0.49,0.66 l -0.9,1.29 -0.72,1 c -0.11,0.16 -0.17,0.27 -0.35,0.34 a 6.66,6.66 0 0 1 -1.09,0.16 l -1.47,0.21 -0.39,0.06 c 0,0 0.12,-0.1 0,0 -0.3,0.27 -0.64,0.51 -1,0.75 l -1.13,0.89 -0.21,0.16 a 0.5,0.5 0 0 0 0,0.13 c -0.19,0.87 -0.46,1.75 -0.7,2.61 -0.07,0.25 0,0.14 0,0.44 l 0.15,1.28 0.24,2.07 c 0.68,0.46 1.36,0.92 2,1.39 l 1.24,0.84 c 0.13,0.09 0.27,0.17 0.4,0.27 0.13,0.1 0.13,0.07 0.13,0.08 a 13.91,13.91 0 0 0 1.71,0 l 3.18,0.09 h 1.07 0.21 a 0.2,0.2 0 0 1 0.15,0 h 7 l 7,-0.14 v 0 l 1.41,-0.1 a 11.17,11.17 0 0 1 1.73,-0.11 v 0 l 0.08,-0.06 c 0.17,-0.18 0.37,-0.34 0.55,-0.5 l 1.14,-1 v -0.12 c 0.07,-0.2 0.15,-0.39 0.22,-0.59 l 0.66,-1.75 A 13.3,13.3 0 0 1 66,78.69 c 0,0 0,0 0,0 a 0.07,0.07 0 0 1 0,-0.06 2.93,2.93 0 0 1 -0.16,-0.39 c -0.43,-0.88 -0.85,-1.76 -1.27,-2.63 l -2.07,-2.2 a 1.47,1.47 0 0 1 -0.42,-0.57 z"
       transform="translate(-16.5,-49.9)"
       id="path62" />
    <polygon
       class="cls-9"
       points="47.11,24.52 46.62,24.01 46.62,24.52 "
       id="polygon64" />
    <rect
       class="cls-9"
       x="32.77"
       y="20.58"
       width="1.17"
       height="1.17"
       id="rect66" />
    <polygon
       class="cls-9"
       points="33.94,16.15 33.81,16.21 33.94,16.21 "
       id="polygon68" />
    <rect
       class="cls-9"
       x="34.150002"
       y="20.58"
       width="1.17"
       height="1.17"
       id="rect70" />
    <rect
       class="cls-9"
       x="35.540001"
       y="20.58"
       width="1.17"
       height="1.17"
       id="rect72" />
    <polygon
       class="cls-9"
       points="34.15,16.21 35.32,16.21 35.32,15.55 34.15,16.06 "
       id="polygon74" />
    <rect
       class="cls-9"
       x="20.299999"
       y="28.889999"
       width="1.17"
       height="1.17"
       id="rect76" />
    <polygon
       class="cls-9"
       points="32.77,16.65 32.77,17.59 33.94,17.59 33.94,16.42 33.31,16.42 "
       id="polygon78" />
    <polygon
       class="cls-9"
       points="20.67,33.05 21.47,33.59 21.47,33.05 "
       id="polygon80" />
    <rect
       class="cls-9"
       x="46.619999"
       y="31.66"
       width="1.17"
       height="1.17"
       id="rect82" />
    <rect
       class="cls-9"
       x="27.23"
       y="24.73"
       width="1.17"
       height="1.17"
       id="rect84" />
    <rect
       class="cls-9"
       x="34.150002"
       y="17.809999"
       width="1.17"
       height="1.17"
       id="rect86" />
    <rect
       class="cls-9"
       x="35.540001"
       y="17.809999"
       width="1.17"
       height="1.17"
       id="rect88" />
    <rect
       class="cls-9"
       x="36.919998"
       y="17.809999"
       width="1.17"
       height="1.17"
       id="rect90" />
    <rect
       class="cls-9"
       x="38.310001"
       y="17.809999"
       width="1.17"
       height="1.17"
       id="rect92" />
    <rect
       class="cls-9"
       x="32.77"
       y="17.809999"
       width="1.17"
       height="1.17"
       id="rect94" />
    <polygon
       class="cls-9"
       points="27.23,20.36 28.4,20.36 28.4,19.45 27.23,19.66 "
       id="polygon96" />
    <rect
       class="cls-9"
       x="27.23"
       y="21.959999"
       width="1.17"
       height="1.17"
       id="rect98" />
    <rect
       class="cls-9"
       x="27.23"
       y="23.35"
       width="1.17"
       height="1.17"
       id="rect100" />
    <rect
       class="cls-9"
       x="27.23"
       y="20.58"
       width="1.17"
       height="1.17"
       id="rect102" />
    <rect
       class="cls-9"
       x="35.540001"
       y="21.959999"
       width="1.17"
       height="1.17"
       id="rect104" />
    <polygon
       class="cls-9"
       points="31.56,18.89 31.38,18.92 31.38,18.98 32.55,18.98 32.55,17.81 31.94,17.81 "
       id="polygon106" />
    <rect
       class="cls-9"
       x="39.700001"
       y="31.66"
       width="1.17"
       height="1.17"
       id="rect108" />
    <rect
       class="cls-9"
       x="39.700001"
       y="28.889999"
       width="1.17"
       height="1.17"
       id="rect110" />
    <rect
       class="cls-9"
       x="38.310001"
       y="31.66"
       width="1.17"
       height="1.17"
       id="rect112" />
    <rect
       class="cls-9"
       x="39.700001"
       y="16.42"
       width="1.17"
       height="1.17"
       id="rect114" />
    <rect
       class="cls-9"
       x="39.700001"
       y="30.27"
       width="1.17"
       height="1.17"
       id="rect116" />
    <rect
       class="cls-9"
       x="36.919998"
       y="31.66"
       width="1.17"
       height="1.17"
       id="rect118" />
    <rect
       class="cls-9"
       x="32.77"
       y="31.66"
       width="1.17"
       height="1.17"
       id="rect120" />
    <rect
       class="cls-9"
       x="35.540001"
       y="31.66"
       width="1.17"
       height="1.17"
       id="rect122" />
    <rect
       class="cls-9"
       x="34.150002"
       y="31.66"
       width="1.17"
       height="1.17"
       id="rect124" />
    <rect
       class="cls-9"
       x="39.700001"
       y="17.809999"
       width="1.17"
       height="1.17"
       id="rect126" />
    <rect
       class="cls-9"
       x="39.700001"
       y="19.190001"
       width="1.17"
       height="1.17"
       id="rect128" />
    <rect
       class="cls-9"
       x="39.700001"
       y="21.959999"
       width="1.17"
       height="1.17"
       id="rect130" />
    <rect
       class="cls-9"
       x="38.310001"
       y="16.42"
       width="1.17"
       height="1.17"
       id="rect132" />
    <rect
       class="cls-9"
       x="31.379999"
       y="31.66"
       width="1.17"
       height="1.17"
       id="rect134" />
    <rect
       class="cls-9"
       x="39.700001"
       y="23.35"
       width="1.17"
       height="1.17"
       id="rect136" />
    <rect
       class="cls-9"
       x="39.700001"
       y="26.120001"
       width="1.17"
       height="1.17"
       id="rect138" />
    <rect
       class="cls-9"
       x="35.540001"
       y="23.35"
       width="1.17"
       height="1.17"
       id="rect140" />
    <rect
       class="cls-9"
       x="39.700001"
       y="27.5"
       width="1.17"
       height="1.17"
       id="rect142" />
    <rect
       class="cls-9"
       x="39.700001"
       y="24.73"
       width="1.17"
       height="1.17"
       id="rect144" />
    <rect
       class="cls-9"
       x="27.23"
       y="28.889999"
       width="1.17"
       height="1.17"
       id="rect146" />
    <rect
       class="cls-9"
       x="34.150002"
       y="16.42"
       width="1.17"
       height="1.17"
       id="rect148" />
    <rect
       class="cls-9"
       x="27.23"
       y="26.120001"
       width="1.17"
       height="1.17"
       id="rect150" />
    <rect
       class="cls-9"
       x="27.23"
       y="27.5"
       width="1.17"
       height="1.17"
       id="rect152" />
    <rect
       class="cls-9"
       x="35.540001"
       y="16.42"
       width="1.17"
       height="1.17"
       id="rect154" />
    <rect
       class="cls-9"
       x="35.540001"
       y="27.5"
       width="1.17"
       height="1.17"
       id="rect156" />
    <rect
       class="cls-9"
       x="35.540001"
       y="24.73"
       width="1.17"
       height="1.17"
       id="rect158" />
    <rect
       class="cls-9"
       x="35.540001"
       y="26.120001"
       width="1.17"
       height="1.17"
       id="rect160" />
    <rect
       class="cls-9"
       x="36.919998"
       y="16.42"
       width="1.17"
       height="1.17"
       id="rect162" />
    <rect
       class="cls-9"
       x="38.310001"
       y="19.190001"
       width="1.17"
       height="1.17"
       id="rect164" />
    <rect
       class="cls-9"
       x="28.610001"
       y="31.66"
       width="1.17"
       height="1.17"
       id="rect166" />
    <rect
       class="cls-9"
       x="27.23"
       y="31.66"
       width="1.17"
       height="1.17"
       id="rect168" />
    <rect
       class="cls-9"
       x="39.279999"
       y="84.269997"
       width="0.0099999998"
       height="0.13"
       transform="rotate(-88.49,5.4246758,67.855291)"
       id="rect170" />
    <rect
       class="cls-9"
       x="27.23"
       y="30.27"
       width="1.17"
       height="1.17"
       id="rect172" />
    <rect
       class="cls-9"
       x="30"
       y="31.66"
       width="1.17"
       height="1.17"
       id="rect174" />
    <rect
       class="cls-9"
       x="39.700001"
       y="20.58"
       width="1.17"
       height="1.17"
       id="rect176" />
    <rect
       class="cls-9"
       x="32.77"
       y="24.73"
       width="1.17"
       height="1.17"
       id="rect178" />
    <polygon
       class="cls-9"
       points="31.17,18.95 31.05,18.98 31.17,18.98 "
       id="polygon180" />
    <rect
       class="cls-9"
       x="32.77"
       y="23.35"
       width="1.17"
       height="1.17"
       id="rect182" />
    <rect
       class="cls-9"
       x="30"
       y="28.889999"
       width="1.17"
       height="1.17"
       id="rect184" />
    <rect
       class="cls-9"
       x="31.379999"
       y="26.120001"
       width="1.17"
       height="1.17"
       id="rect186" />
    <rect
       class="cls-9"
       x="31.379999"
       y="24.73"
       width="1.17"
       height="1.17"
       id="rect188" />
    <rect
       class="cls-9"
       x="31.379999"
       y="23.35"
       width="1.17"
       height="1.17"
       id="rect190" />
    <rect
       class="cls-9"
       x="34.150002"
       y="26.120001"
       width="1.17"
       height="1.17"
       id="rect192" />
    <polygon
       class="cls-9"
       points="32.55,17.59 32.55,16.75 32.27,16.87 32.02,17.59 "
       id="polygon194" />
    <rect
       class="cls-9"
       x="36.919998"
       y="15.04"
       width="1.17"
       height="1.17"
       id="rect196" />
    <polygon
       class="cls-9"
       points="27.01,20.36 27.01,19.7 26.99,19.71 26.53,20.36 "
       id="polygon198" />
    <polygon
       class="cls-9"
       points="25.63,21.64 25.55,21.75 25.63,21.75 "
       id="polygon200" />
    <rect
       class="cls-9"
       x="32.77"
       y="19.190001"
       width="1.17"
       height="1.17"
       id="rect202" />
    <rect
       class="cls-9"
       x="30"
       y="19.190001"
       width="1.17"
       height="1.17"
       id="rect204" />
    <rect
       class="cls-9"
       x="31.379999"
       y="19.190001"
       width="1.17"
       height="1.17"
       id="rect206" />
    <polygon
       class="cls-9"
       points="39.7,16.21 40.86,16.21 40.86,15.87 39.7,15.46 "
       id="polygon208" />
    <polygon
       class="cls-9"
       points="41.08,16.21 41.78,16.21 41.75,16.18 41.08,15.94 "
       id="polygon210" />
    <rect
       class="cls-9"
       x="31.379999"
       y="21.959999"
       width="1.17"
       height="1.17"
       id="rect212" />
    <rect
       class="cls-9"
       x="32.77"
       y="26.120001"
       width="1.17"
       height="1.17"
       id="rect214" />
    <rect
       class="cls-9"
       x="32.77"
       y="28.889999"
       width="1.17"
       height="1.17"
       id="rect216" />
    <rect
       class="cls-9"
       x="35.540001"
       y="28.889999"
       width="1.17"
       height="1.17"
       id="rect218" />
    <rect
       class="cls-9"
       x="32.77"
       y="21.959999"
       width="1.17"
       height="1.17"
       id="rect220" />
    <rect
       class="cls-9"
       x="36.919998"
       y="28.889999"
       width="1.17"
       height="1.17"
       id="rect222" />
    <rect
       class="cls-9"
       x="34.150002"
       y="28.889999"
       width="1.17"
       height="1.17"
       id="rect224" />
    <rect
       class="cls-9"
       x="34.150002"
       y="23.35"
       width="1.17"
       height="1.17"
       id="rect226" />
    <rect
       class="cls-9"
       x="31.379999"
       y="28.889999"
       width="1.17"
       height="1.17"
       id="rect228" />
    <rect
       class="cls-9"
       x="38.310001"
       y="20.58"
       width="1.17"
       height="1.17"
       id="rect230" />
    <rect
       class="cls-9"
       x="34.150002"
       y="21.959999"
       width="1.17"
       height="1.17"
       id="rect232" />
    <rect
       class="cls-9"
       x="36.919998"
       y="27.5"
       width="1.17"
       height="1.17"
       id="rect234" />
    <rect
       class="cls-9"
       x="35.540001"
       y="19.190001"
       width="1.17"
       height="1.17"
       id="rect236" />
    <rect
       class="cls-9"
       x="36.919998"
       y="19.190001"
       width="1.17"
       height="1.17"
       id="rect238" />
    <rect
       class="cls-9"
       x="36.919998"
       y="20.58"
       width="1.17"
       height="1.17"
       id="rect240" />
    <rect
       class="cls-9"
       x="34.150002"
       y="19.190001"
       width="1.17"
       height="1.17"
       id="rect242" />
    <rect
       class="cls-9"
       x="36.919998"
       y="23.35"
       width="1.17"
       height="1.17"
       id="rect244" />
    <rect
       class="cls-9"
       x="36.919998"
       y="21.959999"
       width="1.17"
       height="1.17"
       id="rect246" />
    <rect
       class="cls-9"
       x="36.919998"
       y="24.73"
       width="1.17"
       height="1.17"
       id="rect248" />
    <rect
       class="cls-9"
       x="36.919998"
       y="26.120001"
       width="1.17"
       height="1.17"
       id="rect250" />
    <rect
       class="cls-9"
       x="34.150002"
       y="24.73"
       width="1.17"
       height="1.17"
       id="rect252" />
    <rect
       class="cls-9"
       x="30"
       y="30.27"
       width="1.17"
       height="1.17"
       id="rect254" />
    <rect
       class="cls-9"
       x="35.540001"
       y="30.27"
       width="1.17"
       height="1.17"
       id="rect256" />
    <rect
       class="cls-9"
       x="34.150002"
       y="30.27"
       width="1.17"
       height="1.17"
       id="rect258" />
    <rect
       class="cls-9"
       x="32.77"
       y="30.27"
       width="1.17"
       height="1.17"
       id="rect260" />
    <rect
       class="cls-9"
       x="28.610001"
       y="27.5"
       width="1.17"
       height="1.17"
       id="rect262" />
    <rect
       class="cls-9"
       x="28.610001"
       y="26.120001"
       width="1.17"
       height="1.17"
       id="rect264" />
    <rect
       class="cls-9"
       x="28.610001"
       y="30.27"
       width="1.17"
       height="1.17"
       id="rect266" />
    <rect
       class="cls-9"
       x="28.610001"
       y="28.889999"
       width="1.17"
       height="1.17"
       id="rect268" />
    <rect
       class="cls-9"
       x="38.310001"
       y="30.27"
       width="1.17"
       height="1.17"
       id="rect270" />
    <rect
       class="cls-9"
       x="38.310001"
       y="24.73"
       width="1.17"
       height="1.17"
       id="rect272" />
    <rect
       class="cls-9"
       x="38.310001"
       y="23.35"
       width="1.17"
       height="1.17"
       id="rect274" />
    <rect
       class="cls-9"
       x="38.310001"
       y="21.959999"
       width="1.17"
       height="1.17"
       id="rect276" />
    <rect
       class="cls-9"
       x="38.310001"
       y="26.120001"
       width="1.17"
       height="1.17"
       id="rect278" />
    <rect
       class="cls-9"
       x="38.310001"
       y="27.5"
       width="1.17"
       height="1.17"
       id="rect280" />
    <rect
       class="cls-9"
       x="36.919998"
       y="30.27"
       width="1.17"
       height="1.17"
       id="rect282" />
    <rect
       class="cls-9"
       x="38.310001"
       y="28.889999"
       width="1.17"
       height="1.17"
       id="rect284" />
    <rect
       class="cls-9"
       x="31.379999"
       y="30.27"
       width="1.17"
       height="1.17"
       id="rect286" />
    <rect
       class="cls-9"
       x="28.610001"
       y="24.73"
       width="1.17"
       height="1.17"
       id="rect288" />
    <rect
       class="cls-9"
       x="30"
       y="23.35"
       width="1.17"
       height="1.17"
       id="rect290" />
    <rect
       class="cls-9"
       x="30"
       y="26.120001"
       width="1.17"
       height="1.17"
       id="rect292" />
    <rect
       class="cls-9"
       x="30"
       y="24.73"
       width="1.17"
       height="1.17"
       id="rect294" />
    <rect
       class="cls-9"
       x="30"
       y="27.5"
       width="1.17"
       height="1.17"
       id="rect296" />
    <rect
       class="cls-9"
       x="28.610001"
       y="23.35"
       width="1.17"
       height="1.17"
       id="rect298" />
    <polygon
       class="cls-9"
       points="28.61,20.36 29.78,20.36 29.78,19.2 28.61,19.41 "
       id="polygon300" />
    <rect
       class="cls-9"
       x="28.610001"
       y="20.58"
       width="1.17"
       height="1.17"
       id="rect302" />
    <rect
       class="cls-9"
       x="28.610001"
       y="21.959999"
       width="1.17"
       height="1.17"
       id="rect304" />
    <rect
       class="cls-9"
       x="30"
       y="21.959999"
       width="1.17"
       height="1.17"
       id="rect306" />
    <rect
       class="cls-9"
       x="34.150002"
       y="27.5"
       width="1.17"
       height="1.17"
       id="rect308" />
    <rect
       class="cls-9"
       x="32.77"
       y="27.5"
       width="1.17"
       height="1.17"
       id="rect310" />
    <polygon
       class="cls-9"
       points="43.85,18.98 44.74,18.98 44.66,18.67 43.85,17.97 "
       id="polygon312" />
    <rect
       class="cls-9"
       x="43.849998"
       y="20.58"
       width="1.17"
       height="1.17"
       id="rect314" />
    <polygon
       class="cls-9"
       points="43.4,17.59 42.47,16.79 42.47,17.59 "
       id="polygon316" />
    <rect
       class="cls-9"
       x="31.379999"
       y="27.5"
       width="1.17"
       height="1.17"
       id="rect318" />
    <rect
       class="cls-9"
       x="30"
       y="20.58"
       width="1.17"
       height="1.17"
       id="rect320" />
    <rect
       class="cls-9"
       x="31.379999"
       y="20.58"
       width="1.17"
       height="1.17"
       id="rect322" />
    <polygon
       class="cls-9"
       points="18.7,27.28 18.7,27.29 "
       id="polygon324" />
    <polygon
       class="cls-9"
       points="44.79,19.19 43.85,19.19 43.85,20.36 45.02,20.36 45.02,20.18 "
       id="polygon326" />
    <rect
       class="cls-9"
       x="21.690001"
       y="24.73"
       width="1.17"
       height="1.17"
       id="rect328" />
    <polygon
       class="cls-9"
       points="21.69,23.38 21.69,24.52 22.86,24.52 22.86,23.35 21.91,23.35 "
       id="polygon330" />
    <rect
       class="cls-9"
       x="21.690001"
       y="26.120001"
       width="1.17"
       height="1.17"
       id="rect332" />
    <rect
       class="cls-9"
       x="43.849998"
       y="21.959999"
       width="1.17"
       height="1.17"
       id="rect334" />
    <polygon
       class="cls-9"
       points="45.44,21.96 45.24,21.96 45.24,23.13 45.79,23.13 45.69,23.03 "
       id="polygon336" />
    <rect
       class="cls-9"
       x="21.690001"
       y="27.5"
       width="1.17"
       height="1.17"
       id="rect338" />
    <polygon
       class="cls-9"
       points="45.39,21.75 45.24,21.1 45.24,21.75 "
       id="polygon340" />
    <rect
       class="cls-9"
       x="21.690001"
       y="31.66"
       width="1.17"
       height="1.17"
       id="rect342" />
    <rect
       class="cls-9"
       x="21.690001"
       y="28.889999"
       width="1.17"
       height="1.17"
       id="rect344" />
    <rect
       class="cls-9"
       x="45.240002"
       y="31.66"
       width="1.17"
       height="1.17"
       id="rect346" />
    <rect
       class="cls-9"
       x="45.240002"
       y="30.27"
       width="1.17"
       height="1.17"
       id="rect348" />
    <rect
       class="cls-9"
       x="45.240002"
       y="28.889999"
       width="1.17"
       height="1.17"
       id="rect350" />
    <polygon
       class="cls-9"
       points="46.41,34.16 46.41,33.05 45.24,33.05 45.24,34.22 46.34,34.22 "
       id="polygon352" />
    <rect
       class="cls-9"
       x="21.690001"
       y="30.27"
       width="1.17"
       height="1.17"
       id="rect354" />
    <rect
       class="cls-9"
       x="43.849998"
       y="23.35"
       width="1.17"
       height="1.17"
       id="rect356" />
    <polygon
       class="cls-9"
       points="22.4,34.22 22.86,34.22 22.86,33.05 21.69,33.05 21.69,33.73 "
       id="polygon358" />
    <rect
       class="cls-9"
       x="43.849998"
       y="24.73"
       width="1.17"
       height="1.17"
       id="rect360" />
    <rect
       class="cls-9"
       x="23.07"
       y="33.049999"
       width="1.17"
       height="1.17"
       id="rect362" />
    <rect
       class="cls-9"
       x="23.07"
       y="30.27"
       width="1.17"
       height="1.17"
       id="rect364" />
    <rect
       class="cls-9"
       x="23.07"
       y="27.5"
       width="1.17"
       height="1.17"
       id="rect366" />
    <rect
       class="cls-9"
       x="23.07"
       y="31.66"
       width="1.17"
       height="1.17"
       id="rect368" />
    <rect
       class="cls-9"
       x="23.07"
       y="28.889999"
       width="1.17"
       height="1.17"
       id="rect370" />
    <rect
       class="cls-9"
       x="23.07"
       y="26.120001"
       width="1.17"
       height="1.17"
       id="rect372" />
    <rect
       class="cls-9"
       x="45.240002"
       y="27.5"
       width="1.17"
       height="1.17"
       id="rect374" />
    <rect
       class="cls-9"
       x="23.07"
       y="24.73"
       width="1.17"
       height="1.17"
       id="rect376" />
    <rect
       class="cls-9"
       x="23.07"
       y="23.35"
       width="1.17"
       height="1.17"
       id="rect378" />
    <polygon
       class="cls-9"
       points="24.24,34.43 23.07,34.43 23.07,34.44 24.24,34.48 "
       id="polygon380" />
    <rect
       class="cls-9"
       x="43.849998"
       y="28.889999"
       width="1.17"
       height="1.17"
       id="rect382" />
    <rect
       class="cls-9"
       x="43.849998"
       y="27.5"
       width="1.17"
       height="1.17"
       id="rect384" />
    <rect
       class="cls-9"
       x="43.849998"
       y="26.120001"
       width="1.17"
       height="1.17"
       id="rect386" />
    <rect
       class="cls-9"
       x="43.849998"
       y="30.27"
       width="1.17"
       height="1.17"
       id="rect388" />
    <rect
       class="cls-9"
       x="43.849998"
       y="33.049999"
       width="1.17"
       height="1.17"
       id="rect390" />
    <rect
       class="cls-9"
       x="43.849998"
       y="31.66"
       width="1.17"
       height="1.17"
       id="rect392" />
    <rect
       class="cls-9"
       x="20.299999"
       y="30.27"
       width="1.17"
       height="1.17"
       id="rect394" />
    <polygon
       class="cls-9"
       points="48.01,26.12 48.01,27.29 48.96,27.29 48.39,26.12 "
       id="polygon396" />
    <polygon
       class="cls-9"
       points="47.32,24.73 46.62,24.73 46.62,25.9 47.79,25.9 47.79,25.23 "
       id="polygon398" />
    <polygon
       class="cls-9"
       points="48.01,25.9 48.29,25.9 48.14,25.59 48.01,25.46 "
       id="polygon400" />
    <polygon
       class="cls-9"
       points="49.06,27.5 48.01,27.5 48.01,28.67 49.18,28.67 49.18,27.74 "
       id="polygon402" />
    <rect
       class="cls-9"
       x="46.619999"
       y="30.27"
       width="1.17"
       height="1.17"
       id="rect404" />
    <rect
       class="cls-9"
       x="46.619999"
       y="26.120001"
       width="1.17"
       height="1.17"
       id="rect406" />
    <polygon
       class="cls-9"
       points="49.39,28.67 49.62,28.67 49.63,28.66 49.39,28.18 "
       id="polygon408" />
    <rect
       class="cls-9"
       x="46.619999"
       y="27.5"
       width="1.17"
       height="1.17"
       id="rect410" />
    <rect
       class="cls-9"
       x="46.619999"
       y="28.889999"
       width="1.17"
       height="1.17"
       id="rect412" />
    <polygon
       class="cls-9"
       points="18.7,30.06 18.7,28.89 18.54,28.89 18.68,30.06 "
       id="polygon414" />
    <polygon
       class="cls-9"
       points="20.09,31.66 18.91,31.66 18.91,31.86 20.09,32.65 "
       id="polygon416" />
    <polygon
       class="cls-9"
       points="18.91,26.48 18.91,27.29 20.09,27.29 20.09,26.12 19.01,26.12 "
       id="polygon418" />
    <polygon
       class="cls-9"
       points="18.52,28.67 18.7,28.67 18.7,27.5 18.64,27.5 18.46,28.17 "
       id="polygon420" />
    <polygon
       class="cls-9"
       points="49.18,29.85 49.18,28.89 48.01,28.89 48.01,30.06 49.09,30.06 "
       id="polygon422" />
    <polygon
       class="cls-9"
       points="49.39,29.28 49.54,28.89 49.39,28.89 "
       id="polygon424" />
    <rect
       class="cls-9"
       x="45.240002"
       y="26.120001"
       width="1.17"
       height="1.17"
       id="rect426" />
    <rect
       class="cls-9"
       x="20.299999"
       y="24.73"
       width="1.17"
       height="1.17"
       id="rect428" />
    <polygon
       class="cls-9"
       points="19.07,25.9 20.09,25.9 20.09,24.73 19.92,24.73 19.25,25.25 "
       id="polygon430" />
    <rect
       class="cls-9"
       x="20.299999"
       y="26.120001"
       width="1.17"
       height="1.17"
       id="rect432" />
    <rect
       class="cls-9"
       x="20.299999"
       y="27.5"
       width="1.17"
       height="1.17"
       id="rect434" />
    <polygon
       class="cls-9"
       points="20.3,24.52 21.47,24.52 21.47,23.53 20.3,24.44 "
       id="polygon436" />
    <rect
       class="cls-9"
       x="45.240002"
       y="24.73"
       width="1.17"
       height="1.17"
       id="rect438" />
    <polygon
       class="cls-9"
       points="48.01,30.27 48.01,31.44 48.57,31.44 49.01,30.27 "
       id="polygon440" />
    <polygon
       class="cls-9"
       points="45.99,23.35 45.24,23.35 45.24,24.52 46.41,24.52 46.41,23.78 "
       id="polygon442" />
    <polygon
       class="cls-9"
       points="46.62,33.05 46.62,33.96 47.64,33.05 "
       id="polygon444" />
    <polygon
       class="cls-9"
       points="20.35,32.83 21.47,32.83 21.47,31.66 20.3,31.66 20.3,32.8 "
       id="polygon446" />
    <polygon
       class="cls-9"
       points="48.01,31.66 48.01,32.72 48.12,32.62 48.48,31.66 "
       id="polygon448" />
    <rect
       class="cls-9"
       x="18.92"
       y="28.889999"
       width="1.17"
       height="1.17"
       id="rect450" />
    <rect
       class="cls-9"
       x="18.92"
       y="27.5"
       width="1.17"
       height="1.17"
       id="rect452" />
    <rect
       class="cls-9"
       x="18.92"
       y="30.27"
       width="1.17"
       height="1.17"
       id="rect454" />
    <polygon
       class="cls-9"
       points="24.24,23.13 24.24,23.01 23.39,23.13 "
       id="polygon456" />
    <rect
       class="cls-9"
       x="25.84"
       y="24.73"
       width="1.17"
       height="1.17"
       id="rect458" />
    <rect
       class="cls-9"
       x="41.080002"
       y="27.5"
       width="1.17"
       height="1.17"
       id="rect460" />
    <rect
       class="cls-9"
       x="41.080002"
       y="26.120001"
       width="1.17"
       height="1.17"
       id="rect462" />
    <rect
       class="cls-9"
       x="41.080002"
       y="24.73"
       width="1.17"
       height="1.17"
       id="rect464" />
    <rect
       class="cls-9"
       x="41.080002"
       y="28.889999"
       width="1.17"
       height="1.17"
       id="rect466" />
    <rect
       class="cls-9"
       x="38.310001"
       y="33.049999"
       width="1.17"
       height="1.17"
       id="rect468" />
    <rect
       class="cls-9"
       x="41.080002"
       y="30.27"
       width="1.17"
       height="1.17"
       id="rect470" />
    <rect
       class="cls-9"
       x="39.700001"
       y="33.049999"
       width="1.17"
       height="1.17"
       id="rect472" />
    <rect
       class="cls-9"
       x="41.080002"
       y="33.049999"
       width="1.17"
       height="1.17"
       id="rect474" />
    <rect
       class="cls-9"
       x="41.080002"
       y="23.35"
       width="1.17"
       height="1.17"
       id="rect476" />
    <rect
       class="cls-9"
       x="41.080002"
       y="31.66"
       width="1.17"
       height="1.17"
       id="rect478" />
    <rect
       class="cls-9"
       x="41.080002"
       y="21.959999"
       width="1.17"
       height="1.17"
       id="rect480" />
    <polygon
       class="cls-9"
       points="38.48,15.04 38.31,15.04 38.31,16.21 39.48,16.21 39.48,15.39 "
       id="polygon482" />
    <polygon
       class="cls-9"
       points="37.85,14.82 37.39,14.66 37.02,14.82 "
       id="polygon484" />
    <polygon
       class="cls-9"
       points="42.03,16.42 41.08,16.42 41.08,17.59 42.25,17.59 42.25,16.61 "
       id="polygon486" />
    <rect
       class="cls-9"
       x="41.080002"
       y="20.58"
       width="1.17"
       height="1.17"
       id="rect488" />
    <rect
       class="cls-9"
       x="41.080002"
       y="17.809999"
       width="1.17"
       height="1.17"
       id="rect490" />
    <rect
       class="cls-9"
       x="41.080002"
       y="19.190001"
       width="1.17"
       height="1.17"
       id="rect492" />
    <rect
       class="cls-9"
       x="25.84"
       y="27.5"
       width="1.17"
       height="1.17"
       id="rect494" />
    <rect
       class="cls-9"
       x="25.84"
       y="26.120001"
       width="1.17"
       height="1.17"
       id="rect496" />
    <rect
       class="cls-9"
       x="36.919998"
       y="33.049999"
       width="1.17"
       height="1.17"
       id="rect498" />
    <rect
       class="cls-9"
       x="25.84"
       y="30.27"
       width="1.17"
       height="1.17"
       id="rect500" />
    <rect
       class="cls-9"
       x="42.470001"
       y="17.809999"
       width="1.17"
       height="1.17"
       id="rect502" />
    <polygon
       class="cls-9"
       points="25.84,21.33 25.84,21.75 27.01,21.75 27.01,20.58 26.38,20.58 "
       id="polygon504" />
    <rect
       class="cls-9"
       x="25.84"
       y="21.959999"
       width="1.17"
       height="1.17"
       id="rect506" />
    <rect
       class="cls-9"
       x="25.84"
       y="31.66"
       width="1.17"
       height="1.17"
       id="rect508" />
    <rect
       class="cls-9"
       x="25.84"
       y="28.889999"
       width="1.17"
       height="1.17"
       id="rect510" />
    <rect
       class="cls-9"
       x="31.379999"
       y="33.049999"
       width="1.17"
       height="1.17"
       id="rect512" />
    <rect
       class="cls-9"
       x="34.150002"
       y="33.049999"
       width="1.17"
       height="1.17"
       id="rect514" />
    <rect
       class="cls-9"
       x="25.84"
       y="33.049999"
       width="1.17"
       height="1.17"
       id="rect516" />
    <rect
       class="cls-9"
       x="35.540001"
       y="33.049999"
       width="1.17"
       height="1.17"
       id="rect518" />
    <rect
       class="cls-9"
       x="32.77"
       y="33.049999"
       width="1.17"
       height="1.17"
       id="rect520" />
    <rect
       class="cls-9"
       x="27.23"
       y="33.049999"
       width="1.17"
       height="1.17"
       id="rect522" />
    <rect
       class="cls-9"
       x="28.610001"
       y="33.049999"
       width="1.17"
       height="1.17"
       id="rect524" />
    <rect
       class="cls-9"
       x="30"
       y="33.049999"
       width="1.17"
       height="1.17"
       id="rect526" />
    <rect
       class="cls-9"
       x="25.84"
       y="23.35"
       width="1.17"
       height="1.17"
       id="rect528" />
    <polygon
       class="cls-9"
       points="36.71,34.59 36.71,34.43 35.54,34.43 35.54,34.6 36.12,34.6 "
       id="polygon530" />
    <polygon
       class="cls-9"
       points="42.25,34.43 41.08,34.43 41.08,34.5 42.25,34.47 "
       id="polygon532" />
    <rect
       class="cls-9"
       x="42.470001"
       y="33.049999"
       width="1.17"
       height="1.17"
       id="rect534" />
    <rect
       class="cls-9"
       x="42.470001"
       y="30.27"
       width="1.17"
       height="1.17"
       id="rect536" />
    <rect
       class="cls-9"
       x="42.470001"
       y="31.66"
       width="1.17"
       height="1.17"
       id="rect538" />
    <polygon
       class="cls-9"
       points="38.09,34.43 36.92,34.43 36.92,34.58 38.09,34.56 "
       id="polygon540" />
    <polygon
       class="cls-9"
       points="39.48,34.43 38.31,34.43 38.31,34.55 39.48,34.53 "
       id="polygon542" />
    <polygon
       class="cls-9"
       points="40.86,34.43 39.7,34.43 39.7,34.53 40.86,34.5 "
       id="polygon544" />
    <polygon
       class="cls-9"
       points="43.49,34.43 42.47,34.43 42.47,34.47 43.1,34.45 "
       id="polygon546" />
    <rect
       class="cls-9"
       x="42.470001"
       y="21.959999"
       width="1.17"
       height="1.17"
       id="rect548" />
    <rect
       class="cls-9"
       x="42.470001"
       y="20.58"
       width="1.17"
       height="1.17"
       id="rect550" />
    <rect
       class="cls-9"
       x="42.470001"
       y="19.190001"
       width="1.17"
       height="1.17"
       id="rect552" />
    <rect
       class="cls-9"
       x="42.470001"
       y="23.35"
       width="1.17"
       height="1.17"
       id="rect554" />
    <rect
       class="cls-9"
       x="42.470001"
       y="26.120001"
       width="1.17"
       height="1.17"
       id="rect556" />
    <rect
       class="cls-9"
       x="42.470001"
       y="27.5"
       width="1.17"
       height="1.17"
       id="rect558" />
    <rect
       class="cls-9"
       x="42.470001"
       y="24.73"
       width="1.17"
       height="1.17"
       id="rect560" />
    <rect
       class="cls-9"
       x="42.470001"
       y="28.889999"
       width="1.17"
       height="1.17"
       id="rect562" />
    <rect
       class="cls-9"
       x="24.459999"
       y="24.73"
       width="1.17"
       height="1.17"
       id="rect564" />
    <rect
       class="cls-9"
       x="24.459999"
       y="31.66"
       width="1.17"
       height="1.17"
       id="rect566" />
    <rect
       class="cls-9"
       x="24.459999"
       y="28.889999"
       width="1.17"
       height="1.17"
       id="rect568" />
    <rect
       class="cls-9"
       x="24.459999"
       y="27.5"
       width="1.17"
       height="1.17"
       id="rect570" />
    <rect
       class="cls-9"
       x="24.459999"
       y="30.27"
       width="1.17"
       height="1.17"
       id="rect572" />
    <rect
       class="cls-9"
       x="24.459999"
       y="26.120001"
       width="1.17"
       height="1.17"
       id="rect574" />
    <polygon
       class="cls-9"
       points="24.7,22.94 24.46,22.98 24.46,23.13 25.63,23.13 25.63,21.96 25.4,21.96 "
       id="polygon576" />
    <rect
       class="cls-9"
       x="24.459999"
       y="23.35"
       width="1.17"
       height="1.17"
       id="rect578" />
    <polygon
       class="cls-9"
       points="35.54,15.46 35.54,16.21 36.71,16.21 36.71,15.04 36.52,15.04 "
       id="polygon580" />
    <polygon
       class="cls-9"
       points="28.4,34.43 27.23,34.43 27.23,34.55 28.4,34.58 "
       id="polygon582" />
    <rect
       class="cls-9"
       x="30"
       y="34.43"
       width="1.17"
       height="0.17"
       id="rect584" />
    <rect
       class="cls-9"
       x="31.379999"
       y="34.43"
       width="1.17"
       height="0.17"
       id="rect586" />
    <polygon
       class="cls-9"
       points="29.78,34.6 29.78,34.43 28.61,34.43 28.61,34.59 29,34.6 "
       id="polygon588" />
    <rect
       class="cls-9"
       x="32.77"
       y="34.43"
       width="1.17"
       height="0.17"
       id="rect590" />
    <polygon
       class="cls-9"
       points="27.01,34.43 25.84,34.43 25.84,34.52 27.01,34.55 "
       id="polygon592" />
    <rect
       class="cls-9"
       x="34.150002"
       y="34.43"
       width="1.17"
       height="0.17"
       id="rect594" />
    <polygon
       class="cls-9"
       points="25.63,34.43 24.46,34.43 24.46,34.48 25.63,34.51 "
       id="polygon596" />
    <rect
       class="cls-9"
       x="24.459999"
       y="33.049999"
       width="1.17"
       height="1.17"
       id="rect598" />
    <g
       id="path3773">
      <path
         class="cls-10"
         d="m 76.69,62.79 a 0.08,0.08 0 0 1 -0.07,0 L 76,61.2 a 0.07,0.07 0 0 1 0,-0.08 v 0 a 0.82,0.82 0 1 0 -1,-0.47 v 0 a 0.81,0.81 0 0 0 0.47,0.47 c 0,0 0,0.06 0,0.08 l -0.59,1.55 a 0.08,0.08 0 0 1 -0.08,0 v 0 a 2.6,2.6 0 0 1 1.86,-4.85 2.54,2.54 0 0 1 1.44,1.36 2.59,2.59 0 0 1 -1.31,3.43 l -0.13,0.06 z"
         transform="translate(-16.5,-49.9)"
         id="path600" />
    </g>
    <path
       class="cls-10"
       d="m 75.79,64.78 a 4.39,4.39 0 1 1 4.38,-4.39 4.4,4.4 0 0 1 -4.38,4.39 z m 0,-7.85 a 3.47,3.47 0 1 0 3.46,3.46 3.48,3.48 0 0 0 -3.46,-3.46 z"
       transform="translate(-16.5,-49.9)"
       id="path603" />
    <path
       class="cls-10"
       d="m 85.48,57.83 a 1.87,1.87 0 0 1 0.63,1.52 2,2 0 0 1 -0.63,1.58 2.58,2.58 0 0 1 -1.79,0.56 H 82 v 2 h -0.6 v -6.2 h 2.29 a 2.68,2.68 0 0 1 1.79,0.54 z M 85,60.54 A 1.45,1.45 0 0 0 85.48,59.37 1.38,1.38 0 0 0 85,58.23 2.14,2.14 0 0 0 83.62,57.84 H 82 v 3.1 h 1.65 A 2.1,2.1 0 0 0 85,60.54 Z"
       transform="translate(-16.5,-49.9)"
       id="path605" />
    <path
       class="cls-10"
       d="m 88,57.29 h 4.16 v 0.55 h -3.57 v 2.22 h 3.17 v 0.55 H 88.59 V 63 h 3.66 v 0.55 H 88 Z"
       transform="translate(-16.5,-49.9)"
       id="path607" />
    <path
       class="cls-10"
       d="m 98.94,57.29 h 0.61 V 63.5 H 98.9 l -3.85,-5.26 v 5.26 h -0.61 v -6.21 h 0.65 l 3.85,5.26 z"
       transform="translate(-16.5,-49.9)"
       id="path609" />
    <path
       class="cls-10"
       d="m 78.92,78.18 -0.77,-2 h -4.83 l -0.78,2 h -3 L 74.34,67 h 3 L 82,78.18 Z M 74.2,74 h 3.09 l -1.53,-4 z"
       transform="translate(-16.5,-49.9)"
       id="path611" />
    <path
       class="cls-10"
       d="m 89.73,78.18 -1.62,-3.09 h -2.17 v 3.09 H 83 V 67 h 5 a 5.18,5.18 0 0 1 3.44,1 3.58,3.58 0 0 1 1.22,2.89 4.42,4.42 0 0 1 -0.51,2.18 3.53,3.53 0 0 1 -1.49,1.42 L 93,78.18 Z m -3.79,-5.42 h 2.12 A 2,2 0 0 0 89.44,72.32 1.68,1.68 0 0 0 89.92,71 1.61,1.61 0 0 0 89.44,69.75 2,2 0 0 0 88.06,69.31 h -2.12 z"
       transform="translate(-16.5,-49.9)"
       id="path613" />
    <path
       class="cls-10"
       d="m 104.88,69.71 a 3.08,3.08 0 0 0 -1.48,-0.4 3,3 0 0 0 -1.54,0.42 3,3 0 0 0 -1.09,1.16 3.6,3.6 0 0 0 0,3.3 3,3 0 0 0 1.09,1.16 3,3 0 0 0 1.54,0.42 3.23,3.23 0 0 0 1.43,-0.35 4.48,4.48 0 0 0 1.34,-1 l 1.71,1.83 a 6.92,6.92 0 0 1 -2.16,1.52 5.95,5.95 0 0 1 -5.47,-0.2 5.55,5.55 0 0 1 -2.11,-2.08 5.84,5.84 0 0 1 -0.76,-3 5.61,5.61 0 0 1 0.78,-2.93 5.55,5.55 0 0 1 2.14,-2 6.24,6.24 0 0 1 3,-0.75 6.32,6.32 0 0 1 4.51,1.92 l -1.69,2 a 4.22,4.22 0 0 0 -1.24,-1.02 z"
       transform="translate(-16.5,-49.9)"
       id="path615" />
    <path
       class="cls-10"
       d="M 109.12,67 H 112 v 8.68 h 4.73 v 2.49 h -7.65 z"
       transform="translate(-16.5,-49.9)"
       id="path617" />
    <path
       class="cls-10"
       d="m 126.49,67.59 a 5.54,5.54 0 0 1 3,5 5.63,5.63 0 0 1 -3,5.05 6.23,6.23 0 0 1 -3.08,0.77 6.33,6.33 0 0 1 -3.08,-0.76 5.66,5.66 0 0 1 -3,-5.06 5.52,5.52 0 0 1 0.79,-2.93 5.63,5.63 0 0 1 2.17,-2 6.7,6.7 0 0 1 6.16,0 z m -4.59,2.15 a 3.1,3.1 0 0 0 -1.12,1.18 3.39,3.39 0 0 0 -0.41,1.67 3.43,3.43 0 0 0 0.42,1.68 3.21,3.21 0 0 0 1.12,1.19 2.78,2.78 0 0 0 1.53,0.44 2.72,2.72 0 0 0 1.52,-0.44 3.05,3.05 0 0 0 1.09,-1.19 3.53,3.53 0 0 0 0.4,-1.68 3.49,3.49 0 0 0 -0.4,-1.67 3,3 0 0 0 -1.05,-1.18 2.8,2.8 0 0 0 -1.52,-0.43 2.91,2.91 0 0 0 -1.58,0.43 z"
       transform="translate(-16.5,-49.9)"
       id="path619" />
    <path
       class="cls-10"
       d="m 134.24,75.26 a 2.1,2.1 0 0 0 1.58,0.64 2,2 0 0 0 1.52,-0.63 2.38,2.38 0 0 0 0.58,-1.69 V 67 h 2.92 v 6.57 a 5.11,5.11 0 0 1 -0.62,2.54 4.23,4.23 0 0 1 -1.75,1.68 5.77,5.77 0 0 1 -2.67,0.59 5.85,5.85 0 0 1 -2.68,-0.59 4.34,4.34 0 0 1 -1.79,-1.68 5,5 0 0 1 -0.62,-2.54 V 67 h 2.91 v 6.57 a 2.3,2.3 0 0 0 0.62,1.69 z"
       transform="translate(-16.5,-49.9)"
       id="path621" />
    <path
       class="cls-10"
       d="m 150.74,67.71 a 5.16,5.16 0 0 1 2.09,2 6,6 0 0 1 0,5.82 5.1,5.1 0 0 1 -2.13,2 6.84,6.84 0 0 1 -3.16,0.7 h -4.7 V 67 h 4.81 a 6.71,6.71 0 0 1 3.09,0.71 z m -1.52,7.71 a 2.74,2.74 0 0 0 1,-1.13 3.73,3.73 0 0 0 0.36,-1.67 3.54,3.54 0 0 0 -0.39,-1.69 2.87,2.87 0 0 0 -1.07,-1.14 3,3 0 0 0 -1.56,-0.4 h -1.84 v 6.43 h 2 a 2.81,2.81 0 0 0 1.5,-0.4 z"
       transform="translate(-16.5,-49.9)"
       id="path623" />
  </g>
  <metadata
     id="metadata1443">
    <rdf:RDF>
      <cc:Work
         rdf:about="">
        <dc:title>OARC_Logo_without_gradient_for_white_background</dc:title>
      </cc:Work>
    </rdf:RDF>
  </metadata>
</svg>
