<svg id="Layer_1" data-name="Layer 1" xmlns="http://www.w3.org/2000/svg" viewBox="0 0 320 180">
  <defs>
    <style>
      .cls-1 {
        fill: #01a3d9;
      }

      .cls-2 {
        fill: #010101;
      }

      .cls-3 {
        fill: #231f20;
      }
    </style>
  </defs>
  <title>OnSiteViewer_Logo_OnWhite</title>
  <g>
    <g>
      <path class="cls-1" d="M61.57178,123.2373q-3.09375,3.186-8.94629,3.18653-5.85352,0-8.94629-3.18653-4.14917-3.90673-4.14893-11.26074,0-7.50146,4.14893-11.26172,3.093-3.186,8.94629-3.18554,5.85278,0,8.94629,3.18554,4.13013,3.76026,4.13037,11.26172Q65.70215,119.33009,61.57178,123.2373Zm-3.56592-4.14843q1.99146-2.50048,1.99121-7.11231,0-4.59375-1.99121-7.10351a6.507,6.507,0,0,0-5.38037-2.50977,6.59524,6.59524,0,0,0-5.40869,2.501q-2.01856,2.50048-2.01856,7.1123,0,4.61133,2.01856,7.11231a6.59444,6.59444,0,0,0,5.40869,2.5A6.51509,6.51509,0,0,0,58.00586,119.08887Z"/>
      <path class="cls-1" d="M85.9082,106.63281q1.98267,1.63917,1.98291,5.43653v13.59472h-5.4082V113.38379a5.63915,5.63915,0,0,0-.42285-2.44434,2.96974,2.96974,0,0,0-2.9419-1.55664,3.64706,3.64706,0,0,0-3.65918,2.27832,7.87978,7.87978,0,0,0-.51464,3.0752v10.92773H69.66553V105.51172h5.11181V108.457a8.95482,8.95482,0,0,1,1.91846-2.24121,6.6487,6.6487,0,0,1,4.11279-1.22266A7.7384,7.7384,0,0,1,85.9082,106.63281Z"/>
      <path class="cls-1" d="M97.33789,117.23633a5.52955,5.52955,0,0,0,1.04,2.79687q1.418,1.686,4.86035,1.68555a10.47127,10.47127,0,0,0,3.34717-.44434,3.17791,3.17791,0,0,0,2.43945-3.167,2.33521,2.33521,0,0,0-1.19482-2.09375,12.9634,12.9634,0,0,0-3.79053-1.27734l-2.95557-.64844a18.40607,18.40607,0,0,1-5.9873-2.09277,6.65734,6.65734,0,0,1-2.75977-5.90918,7.84738,7.84738,0,0,1,2.69971-6.09375q2.70043-2.42578,7.93164-2.42578a12.1657,12.1657,0,0,1,7.45313,2.28711,8.13368,8.13368,0,0,1,3.23437,6.64062h-5.48242a3.909,3.909,0,0,0-2.20313-3.501,7.54072,7.54072,0,0,0-3.39843-.68554,6.47008,6.47008,0,0,0-3.6084.88965,2.81314,2.81314,0,0,0-1.34766,2.48144,2.34091,2.34091,0,0,0,1.3291,2.18555,16.47012,16.47012,0,0,0,3.627,1.12988l4.7915,1.12988a12.19517,12.19517,0,0,1,4.72168,1.98243,6.67908,6.67908,0,0,1,2.44141,5.57421,7.83332,7.83332,0,0,1-2.89307,6.21485q-2.89233,2.47266-8.17139,2.47265-5.39135,0-8.481-2.43554a8.06034,8.06034,0,0,1-3.08887-6.69629Z"/>
      <path class="cls-1" d="M123.52734,103.06738H118.1748V98.19629h5.35254Zm-5.35254,2.40821h5.35254v20.18847H118.1748Z"/>
      <path class="cls-1" d="M126.56543,109.41992v-3.75976h2.81494V100.0293H134.604v5.63086h3.27832v3.75976H134.604v10.66895a2.40531,2.40531,0,0,0,.31446,1.54687,3.47294,3.47294,0,0,0,1.92627.30567c.16064,0,.33056-.00293.50976-.00977.17871-.00586.35449-.01465.52783-.02734v3.94531l-2.50048.0918q-3.74194.13036-5.11231-1.2959a3.86039,3.86039,0,0,1-.88916-2.79688V109.41992Z"/>
      <path class="cls-1" d="M154.42725,105.88379a8.21382,8.21382,0,0,1,3.48877,2.9873,9.91361,9.91361,0,0,1,1.60839,4.17383,25.74266,25.74266,0,0,1,.17432,4.00684h-14.7041a4.84439,4.84439,0,0,0,2.11084,4.25976,5.3671,5.3671,0,0,0,2.91064.75879,4.09983,4.09983,0,0,0,4.01758-2.31445h5.38916a6.59364,6.59364,0,0,1-1.95654,3.64844,9.80961,9.80961,0,0,1-7.5957,2.94531,11.00434,11.00434,0,0,1-7.11133-2.48438q-3.08056-2.48437-3.08057-8.083,0-5.2456,2.78125-8.04493a9.733,9.733,0,0,1,7.21924-2.7998A11.49,11.49,0,0,1,154.42725,105.88379Zm-7.897,4.56055a5.48549,5.48549,0,0,0-1.40625,3.125h9.09424a4.4046,4.4046,0,0,0-1.40625-3.19043,4.62515,4.62515,0,0,0-3.13086-1.08789A4.18412,4.18412,0,0,0,146.53027,110.44434Z"/>
      <path class="cls-1" d="M178.76953,98.3623h5.92676l-9.30762,27.30176H169.999L160.76611,98.3623h6.09375l5.92676,20.72657Z"/>
      <path class="cls-1" d="M192.4292,103.06738h-5.35254V98.19629h5.35254Zm-5.35254,2.40821h5.35254v20.18847h-5.35254Z"/>
      <path class="cls-1" d="M210.69727,105.88379a8.21388,8.21388,0,0,1,3.48877,2.9873,9.91361,9.91361,0,0,1,1.60839,4.17383,25.74266,25.74266,0,0,1,.17432,4.00684h-14.7041a4.84439,4.84439,0,0,0,2.11084,4.25976,5.3671,5.3671,0,0,0,2.91064.75879,4.09983,4.09983,0,0,0,4.01758-2.31445h5.38916a6.59364,6.59364,0,0,1-1.95654,3.64844,9.80961,9.80961,0,0,1-7.5957,2.94531,11.00434,11.00434,0,0,1-7.11133-2.48438q-3.08057-2.48437-3.08057-8.083,0-5.2456,2.78125-8.04493a9.733,9.733,0,0,1,7.21924-2.7998A11.49,11.49,0,0,1,210.69727,105.88379Zm-7.897,4.56055a5.48549,5.48549,0,0,0-1.40625,3.125h9.09424a4.4046,4.4046,0,0,0-1.40625-3.19043,4.62515,4.62515,0,0,0-3.13086-1.08789A4.18412,4.18412,0,0,0,202.80029,110.44434Z"/>
      <path class="cls-1" d="M228.1582,105.47559h5.35254l3.07471,14.53906,3.14893-14.53906h5.501l-5.853,20.18847h-5.42675L230.78809,110.958,227.584,125.66406h-5.48242l-5.668-20.18847h5.668L225.25,119.959Z"/>
      <path class="cls-1" d="M261.29932,105.88379a8.21382,8.21382,0,0,1,3.48877,2.9873,9.91361,9.91361,0,0,1,1.60839,4.17383,25.74266,25.74266,0,0,1,.17432,4.00684H251.8667a4.84439,4.84439,0,0,0,2.11084,4.25976,5.3671,5.3671,0,0,0,2.91064.75879,4.09983,4.09983,0,0,0,4.01758-2.31445h5.38916a6.59364,6.59364,0,0,1-1.95654,3.64844,9.8096,9.8096,0,0,1-7.5957,2.94531,11.00434,11.00434,0,0,1-7.11133-2.48438q-3.08056-2.48437-3.08057-8.083,0-5.2456,2.78125-8.04493a9.733,9.733,0,0,1,7.21924-2.7998A11.49,11.49,0,0,1,261.29932,105.88379Zm-7.897,4.56055a5.48549,5.48549,0,0,0-1.40625,3.125h9.09424a4.4046,4.4046,0,0,0-1.40625-3.19043,4.62515,4.62515,0,0,0-3.13086-1.08789A4.18412,4.18412,0,0,0,253.40234,110.44434Z"/>
      <path class="cls-1" d="M280.45557,105.00293c.06738.00586.21875.01562.45361.02734v5.40918c-.3335-.03711-.62988-.0625-.88916-.07422q-.38892-.019-.62988-.01855-3.18531,0-4.27832,2.07422a8.06636,8.06636,0,0,0-.61133,3.59277v9.65039h-5.31592V105.47559h5.03809v3.51855a11.17067,11.17067,0,0,1,2.12988-2.75976,5.79935,5.79935,0,0,1,3.85254-1.24122C280.3042,104.99316,280.38721,104.99707,280.45557,105.00293Z"/>
    </g>
    <g>
      <path class="cls-2" d="M49.61377,143.72949H43.58154v-9.2832h5.97119v1.38086H45.25439v2.5166h3.45508v1.3457H45.25439v2.59864h4.35938Z"/>
      <path class="cls-2" d="M63.72705,143.72949H61.77539l-2.05371-3.65918-2.17627,3.65918H55.98779l2.938-4.835-2.523-4.44824h1.94483l1.71386,3.08789,1.81592-3.08789h1.564l-2.584,4.2373Z"/>
      <path class="cls-2" d="M72.37256,143.72949H70.69971v-9.2832h3.80175a3.19946,3.19946,0,0,1,2.41065.81934,2.85045,2.85045,0,0,1-.06445,3.99609,3.0469,3.0469,0,0,1-2.15577.78808H72.37256Zm0-5.11426h1.97949a1.67237,1.67237,0,0,0,1.18311-.38085,1.321,1.321,0,0,0,.4082-1.01368,1.38954,1.38954,0,0,0-.37744-.97851,1.81734,1.81734,0,0,0-1.36377-.40821H72.37256Z"/>
      <path class="cls-2" d="M90.9541,143.72949H84.92188v-9.2832h5.97119v1.38086H86.59473v2.5166H90.0498v1.3457H86.59473v2.59864H90.9541Z"/>
      <path class="cls-2" d="M105.50977,143.72949h-1.76856l-1.44141-3.81543H99.94629v3.81543H98.27344v-9.2832h4.02636a3.45493,3.45493,0,0,1,2.46827.75879,2.59875,2.59875,0,0,1,.78906,1.96191,2.45492,2.45492,0,0,1-1.67285,2.46192Zm-5.56348-5.15527h2.081a2.02317,2.02317,0,0,0,1.34668-.38086,1.30816,1.30816,0,0,0,.44239-1.04688,1.24568,1.24568,0,0,0-.43555-.98925,1.797,1.797,0,0,0-1.21729-.37793H99.94629Z"/>
      <path class="cls-2" d="M114.77393,143.72949h-1.67286v-9.2832h1.67286Z"/>
      <path class="cls-2" d="M128.72412,143.72949h-6.03223v-9.2832h5.9712v1.38086h-4.29834v2.5166h3.45507v1.3457h-3.45507v2.59864h4.35937Z"/>
      <path class="cls-2" d="M143.05518,143.72949h-1.62549l-3.52295-5.93066q-.0813-.13478-.26514-.44141-.0813-.13623-.25146-.42871v6.80078h-1.34668v-9.2832h1.85009l3.25049,5.46777q.041.06885.5918,1v-6.46777h1.31934Z"/>
      <path class="cls-2" d="M156.16162,140.50586l1.55078.16992a3.63222,3.63222,0,0,1-1.07812,2.2959,3.35179,3.35179,0,0,1-2.438.90039,3.18743,3.18743,0,0,1-2.064-.63867,4.08738,4.08738,0,0,1-1.2207-1.73438,6.575,6.575,0,0,1-.42871-2.41406,5.565,5.565,0,0,1,1.00684-3.45215,3.54114,3.54114,0,0,1,5.0664-.47949,4.00914,4.00914,0,0,1,1.15625,2.43555l-1.55078.16308q-.42846-2.102-1.89062-2.10156a1.61757,1.61757,0,0,0-1.4585.874,5.00635,5.00635,0,0,0-.52051,2.53321,4.72639,4.72639,0,0,0,.55762,2.54687,1.69277,1.69277,0,0,0,1.47607.86035,1.61946,1.61946,0,0,0,1.251-.57812A2.30755,2.30755,0,0,0,156.16162,140.50586Z"/>
      <path class="cls-2" d="M170.94824,143.72949H164.916v-9.2832h5.97119v1.38086h-4.29834v2.5166H170.044v1.3457h-3.45508v2.59864h4.35937Z"/>
      <path class="cls-2" d="M194.86377,143.72949h-1.76856l-1.4414-3.81543h-2.35352v3.81543h-1.67285v-9.2832h4.02637a3.4549,3.4549,0,0,1,2.46826.75879,2.59875,2.59875,0,0,1,.78906,1.96191,2.45491,2.45491,0,0,1-1.67285,2.46192Zm-5.56348-5.15527h2.08106a2.02317,2.02317,0,0,0,1.34668-.38086,1.30819,1.30819,0,0,0,.44238-1.04688,1.24568,1.24568,0,0,0-.43555-.98925,1.79694,1.79694,0,0,0-1.21728-.37793h-2.21729Z"/>
      <path class="cls-2" d="M208.48682,143.72949h-6.03223v-9.2832h5.97119v1.38086h-4.29834v2.5166h3.45508v1.3457h-3.45508v2.59864h4.35938Z"/>
      <path class="cls-2" d="M223.09033,143.72949h-1.78857l-.74121-2.21h-3.57032l-.728,2.21H214.834l3.08106-9.2832h2.06055Zm-2.97851-3.5498-1.35352-4.1416-1.35351,4.1416Z"/>
      <path class="cls-2" d="M235.7959,143.72949H230.083v-9.2832h1.76172v7.7666h3.95117Z"/>
      <path class="cls-2" d="M244.57715,143.72949H242.9043v-9.2832h1.67285Z"/>
      <path class="cls-2" d="M251.52246,141.49219l1.62549-.34668q.29223,1.37988,2.24463,1.37988a2.2754,2.2754,0,0,0,1.37012-.35351,1.0555,1.0555,0,0,0,.47949-.877,1.23675,1.23675,0,0,0-.21778-.7041,1.56951,1.56951,0,0,0-.93164-.50684l-1.7749-.46191a4.37729,4.37729,0,0,1-1.34668-.541,2.11274,2.11274,0,0,1-.69678-.85351,2.701,2.701,0,0,1-.2622-1.17676,2.4437,2.4437,0,0,1,.92528-1.99609,3.63065,3.63065,0,0,1,2.36622-.751,4.33182,4.33182,0,0,1,2.13916.52344,2.36192,2.36192,0,0,1,1.2002,1.48242l-1.59131.39453a1.60562,1.60562,0,0,0-1.71387-1.05371,1.88336,1.88336,0,0,0-1.19336.32617,1.015,1.015,0,0,0-.41162.83008q0,.7954,1.292,1.11524l1.57813.39453a3.21332,3.21332,0,0,1,1.92431,1.06445,2.65881,2.65881,0,0,1,.48975,1.55371,2.55847,2.55847,0,0,1-1.03027,2.15234,4.28393,4.28393,0,0,1-2.66944.78516,4.88,4.88,0,0,1-2.41748-.57812A2.83433,2.83433,0,0,1,251.52246,141.49219Z"/>
      <path class="cls-2" d="M275.436,143.72949h-1.707v-8.12695l-2.5708,8.12695h-.87744l-2.584-8.12695v8.12695h-1.36719v-9.2832h2.61816l1.94532,5.97851,1.91113-5.97851H275.436Z"/>
    </g>
  </g>
  <path class="cls-3" d="M190.75,77.75439l-12.67432-.04345V42.5332L168.98,44.959V77.71533H157.2041V38.7002l-5.6167-1.97364V77.32861H128.98877V36.52686l15.17529-5.0586,4.92334,1.73v-8.2373l15.9585-5.8794L180.57568,25.377V40.0127L190.75,43.4917Zm-10.17432-2.53466,7.67432.02588V45.27881l-7.67432-2.624Zm-20.87158-.0044H166.48V43.03809l11.5957-3.09229V27.06152l-13.07275-5.30029L151.5874,26.7041v7.37256l8.1167,2.85205Zm-28.21533-.38672H149.0874V35.84814l-4.94482-1.7373-12.65381,4.21777Z"/>
</svg>
