<svg xmlns="http://www.w3.org/2000/svg" viewBox="0 0 1182.2 416.4"><defs><style>.cls-1{fill:#e1251b;}</style></defs><g id="Calque_2" data-name="Calque 2"><g id="Calque_1-2" data-name="Calque 1"><path class="cls-1" d="M396.64,318.57H302.88v28.7h65.06l.07,1.49c-8.76,25-28.85,39.39-60.54,39.39-36.62,0-64.23-29.34-64.23-66.46,0-38.59,28.75-69.05,66.87-69.05,29.22,0,50,14.34,61.85,40l26.89-12.4c-16.62-36-48.13-55.81-88.74-55.81-54.1,0-96.47,42.74-96.47,97.3,0,53.11,41.21,94.71,93.83,94.71,27.46,0,48.19-11.08,63.17-28.37l2.7,21.61h23.3V321.29l.15-.89h-.15Z"/><polygon class="cls-1" points="396.64 163.29 248.36 163.29 248.36 115.96 379.56 115.96 379.56 88.52 248.36 88.52 248.36 41.2 396.64 41.2 396.64 13 218.15 13 218.15 191.49 396.64 191.49 396.64 163.29"/><polygon class="cls-1" points="148.03 86.76 30.21 86.76 30.21 13 0 13 0 191.49 30.21 191.49 30.21 115.21 148.03 115.21 148.03 191.49 178.49 191.49 178.49 13 148.03 13 148.03 86.76"/><polygon class="cls-1" points="104.35 381.19 104.35 259.6 178.49 259.6 178.49 231.15 0 231.15 0 259.6 74.14 259.6 74.14 381.19 0 381.19 0 409.64 178.49 409.64 178.49 381.19 104.35 381.19"/><path class="cls-1" d="M473.29,13h12.09L466.74,64H455L436.3,13h12.53l12.3,35.9Z"/><path class="cls-1" d="M494.79,64V13h18.49c15.33,0,25.61,9.79,25.61,25.55S528.61,64,513.21,64Zm18-10.72c7.85,0,14.26-4.54,14.26-14.75s-6.41-14.83-14.26-14.83h-6.61V53.3Z"/><path class="cls-1" d="M686.28,64.13V43.83H665.91v20.3H654.53v-51h11.38v20h20.37v-20h11.44v51Z"/><path class="cls-1" d="M739.32,53.77H719.6l-3.67,10.36H704l19.22-51h13.17l19,51H743Zm-16-10.37h12.38l-6.12-17.63Z"/><path class="cls-1" d="M759.69,45.71V13.1h11.38V44.77c0,6.19,3.45,9.29,8.85,9.29s8.85-3.1,8.85-9.29V13.1h11.37V45.71c0,12.81-9,19.57-20.22,19.57S759.69,58.52,759.69,45.71Z"/><path class="cls-1" d="M833.69,24V64.13H822.31V24H806.62V13.1h42.83V24Z"/><path class="cls-1" d="M856.43,64.13v-51h32.32V23.82h-21v9.72h19v10h-19v9.79h21V64.13Z"/><path class="cls-1" d="M915,64.13v-51h32.32V23.82H926.32v9.72h19v10h-19v9.79h21V64.13ZM933.81,9.5h-9.72L931.57,0h13Z"/><path class="cls-1" d="M953.17,38.72c0-15.9,12.09-26.7,26.34-26.7,15.33,0,22.1,9.86,23.75,17.2l-10.72,3.39c-.79-3.53-4-9.51-13-9.51C972.67,23.1,965,28,965,38.72c0,9.58,7.06,15.12,14.69,15.12,8.85,0,12.38-5.9,13.38-9.57l10.87,3.09c-1.65,7.06-8.42,17.85-24.25,17.85C965,65.21,953.17,54.63,953.17,38.72Z"/><path class="cls-1" d="M1034.79,12c14.32,0,26.49,10.44,26.49,26.63s-12.17,26.56-26.49,26.56-26.56-10.43-26.56-26.56S1020.4,12,1034.79,12Zm0,42c7,0,14.68-4.75,14.68-15.4s-7.63-15.48-14.68-15.48S1020,27.93,1020,38.58,1027.67,54,1034.79,54Z"/><path class="cls-1" d="M1069.84,64.13v-51h11.38V53.26h22V64.13Z"/><path class="cls-1" d="M1110.15,64.13v-51h32.32V23.82h-21v9.72h19v10h-19v9.79h21V64.13Z"/><path class="cls-1" d="M654.53,150.52v-51H673c15.33,0,25.63,9.79,25.63,25.55s-10.3,25.48-25.7,25.48Zm18-10.72c7.85,0,14.25-4.54,14.25-14.76s-6.4-14.83-14.25-14.83h-6.62V139.8Z"/><path class="cls-1" d="M711.32,99.13c4.32,0,6.7,3.53,6.7,7.27,0,9.93-7.06,13.46-11.81,13.82v-4.89c2.52-.29,5.76-2.16,6.12-5.48a4.41,4.41,0,0,1-1.58.29,5.21,5.21,0,0,1-5.62-5.47C705.13,101.65,707.65,99.13,711.32,99.13Z"/><path class="cls-1" d="M726.37,150.52v-51h11.51v51Z"/><path class="cls-1" d="M781.72,150.52,760.7,117v33.54H749.4v-51h13.82l19.15,31v-31h11.37v51Z"/><path class="cls-1" d="M843.19,150.52l-.72-5.18c-2.24,3.24-7.06,6.26-14.33,6.26C814,151.6,802.3,141.17,802.3,125s12.17-26.63,26.56-26.63c14.61,0,21.38,8.64,23.61,15.76L841.53,118c-.79-3.17-4.17-8.93-12.67-8.93-6.91,0-15,4.61-15,16,0,10.66,7,16.2,15.33,16.2s12-5.47,12.6-8.35H826.41v-9.65h26v27.28Z"/><path class="cls-1" d="M862,150.52v-51h32.32v10.72H873.42v9.72h19v10h-19v9.79h21v10.79ZM880.9,95.89h-9.72l7.49-9.5h13Z"/><path class="cls-1" d="M936.18,150.52l-21-33.54v33.54h-11.3v-51h13.82l19.15,31v-31H948.2v51Z"/><path class="cls-1" d="M959.71,150.52v-51h11.52v51Z"/><path class="cls-1" d="M982.75,150.52v-51h32.32v10.72h-21v9.72h19v10h-19v9.79h21v10.79Z"/><path class="cls-1" d="M1040,131.52h-4v19h-11.37v-51h20.22c10.08,0,16.56,6.91,16.56,16a14.63,14.63,0,0,1-10.08,14.39l10.36,20.66h-12.52Zm2.66-9.79c4.68,0,7.2-2.59,7.2-6.19,0-3.81-2.52-6.19-7.2-6.19h-6.69v12.38Z"/><path class="cls-1" d="M1070.2,150.52v-51h11.52v51Z"/><path class="cls-1" d="M1093.23,150.52v-51h32.32v10.72h-21v9.72h19v10h-19v9.79h21v10.79Z"/><path class="cls-1" d="M654.53,236.91v-51h32.32V196.6H665.91v9.72h19v10h-19v9.79h21v10.79Z"/><path class="cls-1" d="M718.88,196.75v40.16H707.51V196.75H691.82V185.88h42.83v10.87Z"/><path class="cls-1" d="M756.46,236.91v-51H775c15.33,0,25.63,9.79,25.63,25.55s-10.3,25.48-25.7,25.48Zm18-10.72c7.85,0,14.25-4.54,14.25-14.76s-6.4-14.83-14.25-14.83h-6.62v29.59Z"/><path class="cls-1" d="M809.29,236.91v-51H841.6V196.6H820.66v9.72h19v10h-19v9.79h21v10.79Z"/><path class="cls-1" d="M905.74,236.91l-.72-5.18C902.78,235,898,238,890.69,238c-14.18,0-25.84-10.43-25.84-26.56S877,184.8,891.41,184.8c14.61,0,21.38,8.64,23.61,15.76l-10.94,3.82c-.79-3.17-4.17-8.93-12.67-8.93-6.91,0-15,4.61-15,16,0,10.65,7,16.2,15.33,16.2s11.95-5.47,12.6-8.35H889v-9.65h26v27.28Z"/><path class="cls-1" d="M924.59,236.91v-51h32.32V196.6H936v9.72h19v10H936v9.79h21v10.79Z"/><path class="cls-1" d="M991.53,201.28c-.36-2.37-2.3-6.4-8.49-6.4-4.25,0-7,2.66-7,5.47,0,2.44,1.51,4.24,5,4.89l6.84,1.3c9.72,1.8,14.76,8.06,14.76,15.33,0,8-6.7,16.12-18.86,16.12-14.11,0-20.15-9.14-20.87-16.34l10.43-2.52c.43,4.68,3.6,8.79,10.58,8.79,4.47,0,7.2-2.16,7.2-5.33,0-2.59-2.09-4.46-5.47-5.11l-7-1.3c-8.64-1.65-13.89-7.41-13.89-15,0-9.64,8.49-16.41,18.28-16.41,12.74,0,17.56,7.63,18.64,13.6Z"/><path class="cls-1" d="M1033.42,196.75v40.16h-11.37V196.75h-15.69V185.88h42.83v10.87Z"/><path class="cls-1" d="M1056.17,236.91v-51h11.51v51Z"/><path class="cls-1" d="M1102.81,184.8c14.32,0,26.49,10.44,26.49,26.63S1117.13,238,1102.81,238s-26.56-10.43-26.56-26.56S1088.41,184.8,1102.81,184.8Zm0,42c7,0,14.68-4.75,14.68-15.4s-7.63-15.48-14.68-15.48-14.76,4.83-14.76,15.48S1095.68,226.76,1102.81,226.76Z"/><path class="cls-1" d="M1170.18,236.91l-21-33.54v33.54h-11.3v-51h13.82l19.15,31v-31h11.37v51Z"/><path class="cls-1" d="M654.53,323.3v-51H673c15.33,0,25.63,9.79,25.63,25.55S688.36,323.3,673,323.3Zm18-10.72c7.85,0,14.25-4.54,14.25-14.76S680.38,283,672.53,283h-6.62v29.59Z"/><path class="cls-1" d="M706.86,304.88V272.27h11.37v31.67c0,6.19,3.46,9.29,8.86,9.29s8.85-3.1,8.85-9.29V272.27h11.37v32.61c0,12.81-9,19.57-20.22,19.57S706.86,317.69,706.86,304.88Z"/><path class="cls-1" d="M772.07,297.89c0-15.9,12.1-26.7,26.35-26.7,15.33,0,22.09,9.86,23.75,17.2l-10.72,3.39c-.8-3.53-4-9.51-13-9.51-6.84,0-14.54,4.9-14.54,15.62,0,9.58,7,15.12,14.68,15.12,8.85,0,12.38-5.9,13.39-9.57l10.87,3.09c-1.66,7.06-8.42,17.85-24.26,17.85C783.88,324.38,772.07,313.8,772.07,297.89Z"/><path class="cls-1" d="M859.24,312.94H839.52l-3.67,10.36h-12l19.22-51h13.17l19,51H862.91Zm-16-10.37h12.38l-6.12-17.63Z"/><path class="cls-1" d="M913.94,323.3l-21-33.54V323.3h-11.3v-51h13.82l19.15,31v-31H926v51Z"/><path class="cls-1" d="M960,283.14V323.3H948.63V283.14H932.94V272.27h42.83v10.87Z"/><path class="cls-1" d="M1005,271.19c14.33,0,26.49,10.44,26.49,26.63s-12.16,26.56-26.49,26.56S978.43,314,978.43,297.82,990.6,271.19,1005,271.19Zm0,42c7.06,0,14.69-4.75,14.69-15.4s-7.63-15.48-14.69-15.48-14.75,4.83-14.75,15.48S997.87,313.15,1005,313.15Z"/><path class="cls-1" d="M1072.36,323.3l-21-33.54V323.3H1040v-51h13.82l19.15,31v-31h11.37v51Z"/><path class="cls-1" d="M654.53,409.69v-51H673c15.33,0,25.63,9.79,25.63,25.55s-10.3,25.48-25.7,25.48Zm18-10.72c7.85,0,14.25-4.54,14.25-14.76s-6.4-14.83-14.25-14.83h-6.62V399Z"/><path class="cls-1" d="M707.37,409.69v-51h32.31v10.72H718.74v9.72h19v10h-19v9.79h21v10.79Z"/><path class="cls-1" d="M795.47,358.66h12.09l-18.64,51H777.18l-18.71-51H771l12.31,35.92Z"/><path class="cls-1" d="M840,399.33H820.23l-3.67,10.36H804.61l19.22-51H837l19,51H843.62ZM824,389h12.38l-6.12-17.63Z"/><path class="cls-1" d="M860.32,391.27V358.66h11.37v31.67c0,6.19,3.46,9.29,8.85,9.29s8.86-3.1,8.86-9.29V358.66h11.37v32.61c0,12.81-9,19.57-20.23,19.57S860.32,404.08,860.32,391.27Z"/><path class="cls-1" d="M911.78,409.69v-51h18.5c15.33,0,25.62,9.79,25.62,25.55s-10.29,25.48-25.69,25.48Zm18-10.72c7.84,0,14.25-4.54,14.25-14.76s-6.41-14.83-14.25-14.83h-6.63V399Z"/></g></g></svg>